<svg xmlns="http://www.w3.org/2000/svg" width="104" height="7" viewBox="0 0 104 7"><defs><style>.cls-1 {fill: #bababa;fill-rule: evenodd;opacity: 0.58; }</style></defs><path id="stroke_copy_2" data-name="stroke copy 2" class="cls-1" d="M1028.11,439.859l3.92-2.39c-0.13.119-4.16-1.1-4.29-.981a15.286,15.286,0,0,1-2.33.147,1.969,1.969,0,0,1-.35.047c-0.54.012-1.08,0.028-1.62,0.025-2.17-.012-4.32-0.219-6.49-0.136-0.96.037-1.92-.075-2.88-0.106a6.614,6.614,0,0,0-.9.041,33.451,33.451,0,0,1-4.14.177c-1.08-.019-3.48.025-4.56,0.047a13.907,13.907,0,0,0-2.34.147,13.239,13.239,0,0,1-2.873.217,4.3,4.3,0,0,0-.9.048,31.8,31.8,0,0,1-4.315.251c-0.36.017-.721,0.026-1.08,0.053a31.38,31.38,0,0,1-3.962.124,15.639,15.639,0,0,0-2.162.076,33.852,33.852,0,0,1-3.961.242,12.193,12.193,0,0,0-1.26.1c-0.779.06-1.559,0.144-2.339,0.172-1.2.042-2.4,0.03-3.607,0.067-1.14.035-2.285,0.048-3.419,0.174a9.847,9.847,0,0,1-2.514.031,8.715,8.715,0,0,0-1.8-.031,55.732,55.732,0,0,1-7.067-.007c-3.758-.241-7.611-0.374-11.375-0.388a47.171,47.171,0,0,0-5.291-.011c-2.706.283-5.376,0.41-8.077,0.789a3.539,3.539,0,0,1-1.076.027,8.512,8.512,0,0,0-3.4.045,1.288,1.288,0,0,1-.8-0.084c0.035,1.335-3.039,3.408-3.067,4.742,0.089,0,3.253-.726,3.339-0.713a23.866,23.866,0,0,0,4.675.135c0.661-.035,1.323-0.069,1.984-0.065a23.084,23.084,0,0,0,3.6-.157,5.014,5.014,0,0,1,1.08-.053,32.474,32.474,0,0,0,3.957-.091,34.926,34.926,0,0,1,4.143.022c0.9,0.058,1.789.2,2.689,0.2,3.243,0.014,6.47.347,9.716,0.323a46.483,46.483,0,0,0,7.014-.339c0.414-.066.84-0.048,1.26-0.076a29.825,29.825,0,0,0,4.674-.389c0.29-.065,2.592.138,2.892,0.108,2.337-.231,2.692-0.389,5.03-0.6a14.762,14.762,0,0,1,2.163-.067,44.291,44.291,0,0,0,5.048-.106,29.482,29.482,0,0,0,3.42-.253,4.536,4.536,0,0,1,.72-0.033c1.443-.034,2.886-0.082,4.329-0.1a57.292,57.292,0,0,1,6.847.11c0.29,0.033,1.91-.034,2.21-0.07,1.26-.148,2.52-0.2,3.78-0.251a25.062,25.062,0,0,0,3.78-.263,2.57,2.57,0,0,1,.54-0.019c1.32,0.022,2.64.053,3.96,0.071a23.3,23.3,0,0,0,4.32-.2,20.98,20.98,0,0,1,2.52-.169,1.271,1.271,0,0,1,.72.162A3.127,3.127,0,0,1,1028.11,439.859Z" transform="translate(-927.781 -436.469)"/></svg>